<svg width="17" height="18" viewBox="0 0 17 18" fill="none" xmlns="http://www.w3.org/2000/svg">
<path d="M14.6083 0.575719L14.7696 0.404969C14.8909 0.276525 15.035 0.174652 15.1936 0.105167C15.3521 0.0356828 15.5221 -5.31473e-05 15.6937 5.93264e-08C15.8653 5.3266e-05 16.0352 0.0358946 16.1937 0.105478C16.3522 0.175061 16.4962 0.277022 16.6175 0.405542C16.7388 0.534061 16.8351 0.686621 16.9007 0.854511C16.9663 1.0224 17 1.20233 17 1.38403C17 1.56573 16.9661 1.74564 16.9004 1.91349C16.8347 2.08134 16.7384 2.23384 16.617 2.36229L16.4557 2.53189C16.7316 2.85948 16.8787 3.28639 16.8668 3.72511C16.8549 4.16383 16.685 4.58112 16.3919 4.89145L5.25315 16.6869C5.18352 16.7603 5.09634 16.8122 5.00098 16.837L0.671892 17.983C0.581297 18.0069 0.486407 18.0056 0.396446 17.9791C0.306484 17.9527 0.224511 17.9021 0.158495 17.8322C0.0924789 17.7623 0.0446655 17.6755 0.0197025 17.5802C-0.00526057 17.485 -0.00652401 17.3845 0.016035 17.2886L1.09831 12.7047C1.12199 12.6041 1.17099 12.5122 1.24008 12.4388L11.6753 1.38936C11.571 1.31158 11.444 1.27536 11.3169 1.28711C11.1897 1.29885 11.0706 1.3578 10.9805 1.45353L7.41769 5.22722C7.36738 5.28049 7.30765 5.32275 7.24191 5.35158C7.17618 5.38041 7.10572 5.39525 7.03457 5.39525C6.96341 5.39525 6.89296 5.38041 6.82722 5.35158C6.76148 5.32275 6.70176 5.28049 6.65144 5.22722C6.60113 5.17394 6.56122 5.1107 6.53399 5.04109C6.50676 4.97149 6.49275 4.89688 6.49275 4.82154C6.49275 4.7462 6.50676 4.6716 6.53399 4.60199C6.56122 4.53239 6.60113 4.46914 6.65144 4.41587L10.2164 0.643331C10.5097 0.33279 10.9041 0.152879 11.3187 0.140519C11.7333 0.128159 12.1366 0.284288 12.4459 0.576865C12.7433 0.295458 13.1281 0.139805 13.5269 0.139594C13.9257 0.139382 14.3107 0.294628 14.6083 0.575719Z" fill="#4424C4"/>
</svg>
