<svg width="18" height="16" viewBox="0 0 18 16" fill="none" xmlns="http://www.w3.org/2000/svg">
<path d="M6.54545 4C6.97944 4 7.39566 3.78929 7.70254 3.41421C8.00942 3.03914 8.18182 2.53043 8.18182 2C8.18182 1.46957 8.00942 0.96086 7.70254 0.585787C7.39566 0.210714 6.97944 0 6.54545 0C6.11146 0 5.69525 0.210714 5.38837 0.585787C5.08149 0.96086 4.90909 1.46957 4.90909 2C4.90909 2.53043 5.08149 3.03914 5.38837 3.41421C5.69525 3.78929 6.11146 4 6.54545 4ZM11.4545 4C11.8885 4 12.3048 3.78929 12.6116 3.41421C12.9185 3.03914 13.0909 2.53043 13.0909 2C13.0909 1.46957 12.9185 0.96086 12.6116 0.585787C12.3048 0.210714 11.8885 0 11.4545 0C11.0206 0 10.6043 0.210714 10.2975 0.585787C9.99058 0.96086 9.81818 1.46957 9.81818 2C9.81818 2.53043 9.99058 3.03914 10.2975 3.41421C10.6043 3.78929 11.0206 4 11.4545 4ZM16.3636 4C16.7976 4 17.2138 3.78929 17.5207 3.41421C17.8276 3.03914 18 2.53043 18 2C18 1.46957 17.8276 0.96086 17.5207 0.585787C17.2138 0.210714 16.7976 0 16.3636 0C15.9296 0 15.5134 0.210714 15.2066 0.585787C14.8997 0.96086 14.7273 1.46957 14.7273 2C14.7273 2.53043 14.8997 3.03914 15.2066 3.41421C15.5134 3.78929 15.9296 4 16.3636 4ZM1.63636 10C2.07035 10 2.48657 9.78929 2.79345 9.41421C3.10032 9.03914 3.27273 8.53043 3.27273 8C3.27273 7.46957 3.10032 6.96086 2.79345 6.58579C2.48657 6.21071 2.07035 6 1.63636 6C1.20237 6 0.786157 6.21071 0.47928 6.58579C0.172402 6.96086 0 7.46957 0 8C0 8.53043 0.172402 9.03914 0.47928 9.41421C0.786157 9.78929 1.20237 10 1.63636 10ZM6.54545 10C6.97944 10 7.39566 9.78929 7.70254 9.41421C8.00942 9.03914 8.18182 8.53043 8.18182 8C8.18182 7.46957 8.00942 6.96086 7.70254 6.58579C7.39566 6.21071 6.97944 6 6.54545 6C6.11146 6 5.69525 6.21071 5.38837 6.58579C5.08149 6.96086 4.90909 7.46957 4.90909 8C4.90909 8.53043 5.08149 9.03914 5.38837 9.41421C5.69525 9.78929 6.11146 10 6.54545 10ZM11.4545 10C11.8885 10 12.3048 9.78929 12.6116 9.41421C12.9185 9.03914 13.0909 8.53043 13.0909 8C13.0909 7.46957 12.9185 6.96086 12.6116 6.58579C12.3048 6.21071 11.8885 6 11.4545 6C11.0206 6 10.6043 6.21071 10.2975 6.58579C9.99058 6.96086 9.81818 7.46957 9.81818 8C9.81818 8.53043 9.99058 9.03914 10.2975 9.41421C10.6043 9.78929 11.0206 10 11.4545 10ZM16.3636 10C16.7976 10 17.2138 9.78929 17.5207 9.41421C17.8276 9.03914 18 8.53043 18 8C18 7.46957 17.8276 6.96086 17.5207 6.58579C17.2138 6.21071 16.7976 6 16.3636 6C15.9296 6 15.5134 6.21071 15.2066 6.58579C14.8997 6.96086 14.7273 7.46957 14.7273 8C14.7273 8.53043 14.8997 9.03914 15.2066 9.41421C15.5134 9.78929 15.9296 10 16.3636 10ZM1.63636 16C2.07035 16 2.48657 15.7893 2.79345 15.4142C3.10032 15.0391 3.27273 14.5304 3.27273 14C3.27273 13.4696 3.10032 12.9609 2.79345 12.5858C2.48657 12.2107 2.07035 12 1.63636 12C1.20237 12 0.786157 12.2107 0.47928 12.5858C0.172402 12.9609 0 13.4696 0 14C0 14.5304 0.172402 15.0391 0.47928 15.4142C0.786157 15.7893 1.20237 16 1.63636 16ZM6.54545 16C6.97944 16 7.39566 15.7893 7.70254 15.4142C8.00942 15.0391 8.18182 14.5304 8.18182 14C8.18182 13.4696 8.00942 12.9609 7.70254 12.5858C7.39566 12.2107 6.97944 12 6.54545 12C6.11146 12 5.69525 12.2107 5.38837 12.5858C5.08149 12.9609 4.90909 13.4696 4.90909 14C4.90909 14.5304 5.08149 15.0391 5.38837 15.4142C5.69525 15.7893 6.11146 16 6.54545 16ZM11.4545 16C11.8885 16 12.3048 15.7893 12.6116 15.4142C12.9185 15.0391 13.0909 14.5304 13.0909 14C13.0909 13.4696 12.9185 12.9609 12.6116 12.5858C12.3048 12.2107 11.8885 12 11.4545 12C11.0206 12 10.6043 12.2107 10.2975 12.5858C9.99058 12.9609 9.81818 13.4696 9.81818 14C9.81818 14.5304 9.99058 15.0391 10.2975 15.4142C10.6043 15.7893 11.0206 16 11.4545 16Z" fill="#554C4C"/>
</svg>
