<svg width="39" height="37" viewBox="0 0 39 37" fill="none" xmlns="http://www.w3.org/2000/svg">
<path fill-rule="evenodd" clip-rule="evenodd" d="M12.1876 26.5937C12.1876 26.2871 12.316 25.993 12.5445 25.7762C12.7731 25.5593 13.0831 25.4375 13.4063 25.4375H35.3438C35.6671 25.4375 35.9771 25.5593 36.2056 25.7762C36.4342 25.993 36.5626 26.2871 36.5626 26.5937C36.5626 26.9004 36.4342 27.1945 36.2056 27.4113C35.9771 27.6282 35.6671 27.75 35.3438 27.75H13.4063C13.0831 27.75 12.7731 27.6282 12.5445 27.4113C12.316 27.1945 12.1876 26.9004 12.1876 26.5937ZM12.1876 17.3437C12.1876 17.0371 12.316 16.743 12.5445 16.5262C12.7731 16.3093 13.0831 16.1875 13.4063 16.1875H35.3438C35.6671 16.1875 35.9771 16.3093 36.2056 16.5262C36.4342 16.743 36.5626 17.0371 36.5626 17.3437C36.5626 17.6504 36.4342 17.9445 36.2056 18.1613C35.9771 18.3782 35.6671 18.5 35.3438 18.5H13.4063C13.0831 18.5 12.7731 18.3782 12.5445 18.1613C12.316 17.9445 12.1876 17.6504 12.1876 17.3437ZM12.1876 8.09375C12.1876 7.78709 12.316 7.493 12.5445 7.27616C12.7731 7.05932 13.0831 6.9375 13.4063 6.9375H35.3438C35.6671 6.9375 35.9771 7.05932 36.2056 7.27616C36.4342 7.493 36.5626 7.78709 36.5626 8.09375C36.5626 8.40041 36.4342 8.6945 36.2056 8.91134C35.9771 9.12818 35.6671 9.25 35.3438 9.25H13.4063C13.0831 9.25 12.7731 9.12818 12.5445 8.91134C12.316 8.6945 12.1876 8.40041 12.1876 8.09375ZM9.3942 4.96263C9.5077 5.07003 9.59775 5.19762 9.65919 5.3381C9.72063 5.47857 9.75225 5.62916 9.75225 5.78125C9.75225 5.93334 9.72063 6.08393 9.65919 6.2244C9.59775 6.36488 9.5077 6.49247 9.3942 6.59988L5.73795 10.0686C5.62474 10.1763 5.49025 10.2617 5.34218 10.32C5.19412 10.3783 5.03538 10.4083 4.87507 10.4083C4.71477 10.4083 4.55603 10.3783 4.40797 10.32C4.2599 10.2617 4.12541 10.1763 4.0122 10.0686L2.79345 8.91237C2.68014 8.80487 2.59025 8.67725 2.52892 8.53679C2.4676 8.39633 2.43604 8.24578 2.43604 8.09375C2.43604 7.94172 2.4676 7.79117 2.52892 7.65071C2.59025 7.51025 2.68014 7.38263 2.79345 7.27512C2.90676 7.16762 3.04129 7.08235 3.18934 7.02417C3.33739 6.96598 3.49607 6.93604 3.65632 6.93604C3.81658 6.93604 3.97526 6.96598 4.12331 7.02417C4.27136 7.08235 4.40589 7.16762 4.5192 7.27512L4.87507 7.61506L7.66845 4.96263C7.78166 4.85495 7.91615 4.76952 8.06422 4.71123C8.21228 4.65294 8.37102 4.62293 8.53132 4.62293C8.69163 4.62293 8.85037 4.65294 8.99843 4.71123C9.1465 4.76952 9.28099 4.85495 9.3942 4.96263ZM9.3942 14.2126C9.5077 14.32 9.59775 14.4476 9.65919 14.5881C9.72063 14.7286 9.75225 14.8792 9.75225 15.0312C9.75225 15.1833 9.72063 15.3339 9.65919 15.4744C9.59775 15.6149 9.5077 15.7425 9.3942 15.8499L5.73795 19.3186C5.62474 19.4263 5.49025 19.5117 5.34218 19.57C5.19412 19.6283 5.03538 19.6583 4.87507 19.6583C4.71477 19.6583 4.55603 19.6283 4.40797 19.57C4.2599 19.5117 4.12541 19.4263 4.0122 19.3186L2.79345 18.1624C2.5646 17.9453 2.43604 17.6508 2.43604 17.3437C2.43604 17.0367 2.5646 16.7422 2.79345 16.5251C3.0223 16.308 3.33268 16.186 3.65632 16.186C3.97997 16.186 4.29035 16.308 4.5192 16.5251L4.87507 16.8651L7.66845 14.2126C7.78166 14.1049 7.91615 14.0195 8.06422 13.9612C8.21228 13.9029 8.37102 13.8729 8.53132 13.8729C8.69163 13.8729 8.85037 13.9029 8.99843 13.9612C9.1465 14.0195 9.28099 14.1049 9.3942 14.2126ZM9.3942 23.4626C9.5077 23.57 9.59775 23.6976 9.65919 23.8381C9.72063 23.9786 9.75225 24.1292 9.75225 24.2812C9.75225 24.4333 9.72063 24.5839 9.65919 24.7244C9.59775 24.8649 9.5077 24.9925 9.3942 25.0999L5.73795 28.5686C5.62474 28.6763 5.49025 28.7617 5.34218 28.82C5.19412 28.8783 5.03538 28.9083 4.87507 28.9083C4.71477 28.9083 4.55603 28.8783 4.40797 28.82C4.2599 28.7617 4.12541 28.6763 4.0122 28.5686L2.79345 27.4124C2.5646 27.1953 2.43604 26.9008 2.43604 26.5937C2.43604 26.2867 2.5646 25.9922 2.79345 25.7751C3.0223 25.558 3.33268 25.436 3.65632 25.436C3.97997 25.436 4.29035 25.558 4.5192 25.7751L4.87507 26.1151L7.66845 23.4626C7.78166 23.3549 7.91615 23.2695 8.06422 23.2112C8.21228 23.1529 8.37102 23.1229 8.53132 23.1229C8.69163 23.1229 8.85037 23.1529 8.99843 23.2112C9.1465 23.2695 9.28099 23.3549 9.3942 23.4626Z" fill="white"/>
</svg>
