<svg width="27" height="27" viewBox="0 0 27 27" fill="none" xmlns="http://www.w3.org/2000/svg">
<g clip-path="url(#clip0_23_65)">
<path fill-rule="evenodd" clip-rule="evenodd" d="M0 0H1.6875V25.3125H27V27H0V0ZM16.875 5.90625C16.875 5.68247 16.9639 5.46786 17.1221 5.30963C17.2804 5.15139 17.495 5.0625 17.7188 5.0625H24.4688C24.6925 5.0625 24.9071 5.15139 25.0654 5.30963C25.2236 5.46786 25.3125 5.68247 25.3125 5.90625V12.6562C25.3125 12.88 25.2236 13.0946 25.0654 13.2529C24.9071 13.4111 24.6925 13.5 24.4688 13.5C24.245 13.5 24.0304 13.4111 23.8721 13.2529C23.7139 13.0946 23.625 12.88 23.625 12.6562V8.26875L17.5281 15.7224C17.4534 15.8135 17.3605 15.888 17.2554 15.941C17.1502 15.9941 17.0351 16.0245 16.9175 16.0304C16.7999 16.0363 16.6823 16.0175 16.5724 15.9752C16.4625 15.9329 16.3627 15.8681 16.2793 15.7849L11.9137 11.4193L5.74425 19.9024C5.60929 20.074 5.41306 20.1866 5.1968 20.2166C4.98054 20.2465 4.76108 20.1915 4.58455 20.063C4.40802 19.9346 4.28816 19.7427 4.25015 19.5277C4.21215 19.3127 4.25896 19.0913 4.38075 18.9101L11.1308 9.62887C11.2024 9.53018 11.2946 9.44819 11.401 9.38855C11.5074 9.32892 11.6254 9.29305 11.747 9.28343C11.8686 9.2738 11.9908 9.29065 12.1052 9.33281C12.2197 9.37497 12.3236 9.44143 12.4099 9.52763L16.8126 13.932L22.6884 6.75H17.7188C17.495 6.75 17.2804 6.66111 17.1221 6.50287C16.9639 6.34464 16.875 6.13003 16.875 5.90625Z" fill="white"/>
</g>
<defs>
<clipPath id="clip0_23_65">
<rect width="27" height="27" fill="white"/>
</clipPath>
</defs>
</svg>
