<svg width="44" height="45" viewBox="0 0 44 45" fill="none" xmlns="http://www.w3.org/2000/svg">
<g clip-path="url(#clip0_45_34)">
<path d="M22 41.9545C16.8946 41.9545 11.9983 39.9264 8.38819 36.3163C4.77812 32.7063 2.75 27.8099 2.75 22.7045C2.75 17.5991 4.77812 12.7028 8.38819 9.09272C11.9983 5.48265 16.8946 3.45453 22 3.45453C27.1054 3.45453 32.0017 5.48265 35.6118 9.09272C39.2219 12.7028 41.25 17.5991 41.25 22.7045C41.25 27.8099 39.2219 32.7063 35.6118 36.3163C32.0017 39.9264 27.1054 41.9545 22 41.9545ZM22 44.7045C27.8348 44.7045 33.4305 42.3867 37.5564 38.2609C41.6822 34.1351 44 28.5393 44 22.7045C44 16.8698 41.6822 11.274 37.5564 7.14818C33.4305 3.02238 27.8348 0.704529 22 0.704529C16.1652 0.704529 10.5695 3.02238 6.44365 7.14818C2.31785 11.274 0 16.8698 0 22.7045C0 28.5393 2.31785 34.1351 6.44365 38.2609C10.5695 42.3867 16.1652 44.7045 22 44.7045Z" fill="#BF3636"/>
<path d="M11.7837 34.8953C12.0995 35.0776 12.4748 35.127 12.827 35.0326C13.1792 34.9383 13.4796 34.7078 13.6619 34.392C14.5065 32.9281 15.7218 31.7125 17.1856 30.8677C18.6493 30.0228 20.3098 29.5785 21.9999 29.5795C25.5612 29.5795 28.6714 31.5128 30.3379 34.392C30.5215 34.7053 30.8216 34.9332 31.1726 35.026C31.5237 35.1188 31.8972 35.069 32.2116 34.8874C32.5261 34.7059 32.7559 34.4073 32.8511 34.0569C32.9462 33.7065 32.8989 33.3327 32.7194 33.017C31.6335 31.1351 30.071 29.5723 28.1892 28.4861C26.3074 27.3999 24.1727 26.8285 21.9999 26.8295C19.8272 26.8291 17.6927 27.4007 15.811 28.4869C13.9293 29.573 12.3667 31.1354 11.2804 33.017C11.0981 33.3328 11.0487 33.7081 11.143 34.0604C11.2374 34.4126 11.4679 34.7129 11.7837 34.8953ZM19.2499 18.5795C19.2499 20.8565 18.0179 22.7045 16.4999 22.7045C14.9819 22.7045 13.7499 20.8565 13.7499 18.5795C13.7499 16.3025 14.9819 14.4545 16.4999 14.4545C18.0179 14.4545 19.2499 16.3025 19.2499 18.5795ZM30.2499 18.5795C30.2499 20.8565 29.0179 22.7045 27.4999 22.7045C25.9819 22.7045 24.7499 20.8565 24.7499 18.5795C24.7499 16.3025 25.9819 14.4545 27.4999 14.4545C29.0179 14.4545 30.2499 16.3025 30.2499 18.5795Z" fill="#BF3636"/>
</g>
<defs>
<clipPath id="clip0_45_34">
<rect y="0.704529" width="44" height="44" rx="16" fill="white"/>
</clipPath>
</defs>
</svg>
