<svg width="30" height="24" viewBox="0 0 30 24" fill="none" xmlns="http://www.w3.org/2000/svg">
<g id="emoji-smile 1" clip-path="url(#clip0_70_9)">
<path id="Vector" d="M15 22.5C11.519 22.5 8.18064 21.3938 5.71922 19.4246C3.25781 17.4555 1.875 14.7848 1.875 12C1.875 9.21523 3.25781 6.54451 5.71922 4.57538C8.18064 2.60625 11.519 1.5 15 1.5C18.481 1.5 21.8194 2.60625 24.2808 4.57538C26.7422 6.54451 28.125 9.21523 28.125 12C28.125 14.7848 26.7422 17.4555 24.2808 19.4246C21.8194 21.3938 18.481 22.5 15 22.5ZM15 24C18.9782 24 22.7936 22.7357 25.6066 20.4853C28.4196 18.2348 30 15.1826 30 12C30 8.8174 28.4196 5.76516 25.6066 3.51472C22.7936 1.26428 18.9782 0 15 0C11.0218 0 7.20644 1.26428 4.3934 3.51472C1.58035 5.76516 0 8.8174 0 12C0 15.1826 1.58035 18.2348 4.3934 20.4853C7.20644 22.7357 11.0218 24 15 24Z" fill="white"/>
<path id="Vector_2" d="M8.03437 14.3505C8.2497 14.251 8.50559 14.2241 8.74575 14.2756C8.98591 14.3271 9.19068 14.4527 9.315 14.625C9.89083 15.4235 10.7195 16.0866 11.7175 16.5474C12.7155 17.0082 13.8477 17.2505 15 17.25C16.1523 17.2505 17.2845 17.0082 18.2825 16.5474C19.2805 16.0866 20.1092 15.4235 20.685 14.625C20.7461 14.539 20.8279 14.4636 20.9256 14.4029C21.0233 14.3423 21.135 14.2978 21.2544 14.2719C21.3737 14.246 21.4982 14.2392 21.6208 14.2519C21.7434 14.2647 21.8617 14.2967 21.9687 14.3462C22.0758 14.3956 22.1696 14.4615 22.2447 14.5401C22.3198 14.6187 22.3747 14.7084 22.4063 14.804C22.4379 14.8996 22.4456 14.9993 22.4288 15.0973C22.4121 15.1953 22.3713 15.2897 22.3088 15.375C21.5684 16.4015 20.503 17.2539 19.22 17.8464C17.9369 18.4389 16.4814 18.7505 15 18.75C13.5186 18.7505 12.0631 18.4389 10.78 17.8464C9.49697 17.2539 8.43164 16.4015 7.69125 15.375C7.56694 15.2027 7.53325 14.998 7.59759 14.8059C7.66194 14.6138 7.81906 14.45 8.03437 14.3505ZM13.125 9.75C13.125 10.992 12.285 12 11.25 12C10.215 12 9.375 10.992 9.375 9.75C9.375 8.508 10.215 7.5 11.25 7.5C12.285 7.5 13.125 8.508 13.125 9.75ZM20.625 9.75C20.625 10.992 19.785 12 18.75 12C17.715 12 16.875 10.992 16.875 9.75C16.875 8.508 17.715 7.5 18.75 7.5C19.785 7.5 20.625 8.508 20.625 9.75Z" fill="white"/>
</g>
<defs>
<clipPath id="clip0_70_9">
<rect width="30" height="24" fill="white"/>
</clipPath>
</defs>
</svg>
